<svg width="139" height="24" viewBox="0 0 139 24" fill="none" xmlns="http://www.w3.org/2000/svg">
<g clip-path="url(#clip0_1613_2532)">
<path d="M112.065 1.75732H107.114C106.882 1.75732 106.695 1.94444 106.695 2.17631V21.8624C106.695 22.0943 106.882 22.2814 107.114 22.2814H112.065C112.297 22.2814 112.484 22.0943 112.484 21.8624V2.17631C112.482 1.94444 112.295 1.75732 112.065 1.75732Z" fill="#22244E"/>
<path d="M21.4139 0.10376V9.69766H16.0721V0.10376H10.7609V9.69766H5.41914V0.10376H3.04028C1.42045 0.10376 0.10791 1.41563 0.10791 3.03461V20.9634C0.10791 22.5824 1.42045 23.8943 3.04028 23.8943H23.7948C25.4146 23.8943 26.7272 22.5824 26.7272 20.9634V3.03461C26.7272 1.41563 25.4146 0.10376 23.7948 0.10376H21.4139ZM5.41914 18.9194V15.0407H21.4159V18.9194H5.41914Z" fill="#D33F1F"/>
<path d="M85.5577 21.8684L85.4824 2.16199C85.4824 1.93216 85.6676 1.74707 85.8955 1.74707L95.8505 1.75724C100.932 1.75724 103.4 4.22029 103.4 8.32877C103.4 12.4271 100.712 15.2867 95.8811 15.2867H91.7583C91.5303 15.2867 91.3451 15.4718 91.3451 15.6996V21.8664C91.3451 22.0942 91.16 22.2793 90.932 22.2793H85.9708C85.7429 22.2813 85.5577 22.0962 85.5577 21.8684ZM91.7766 5.90842C91.5405 5.90842 91.3451 6.10164 91.3451 6.33961V10.8711C91.3451 11.1091 91.5364 11.3003 91.7745 11.3003H94.9226C96.5852 11.3003 97.7471 10.145 97.7471 8.49148C97.7471 6.99656 96.4916 5.90842 94.7639 5.90842H91.7766Z" fill="#22244E"/>
<path d="M81.079 5.31258V2.17427C81.079 1.94444 80.8918 1.75732 80.6618 1.75732H68.4704C68.2404 1.75732 68.0532 1.94444 68.0532 2.17427V21.8746C68.0532 22.1044 68.2404 22.2916 68.4704 22.2916H80.6618C80.8918 22.2916 81.079 22.1044 81.079 21.8746V18.7363C81.079 18.5065 80.8918 18.3194 80.6618 18.3194H74.2598C74.0299 18.3194 73.8427 18.1322 73.8427 17.9024V14.2231C73.8427 13.9933 74.0299 13.8061 74.2598 13.8061H80.6618C80.8918 13.8061 81.079 13.619 81.079 13.3892V10.2509C81.079 10.0211 80.8918 9.83393 80.6618 9.83393H74.2598C74.0299 9.83393 73.8427 9.64681 73.8427 9.41698V6.14444C73.8427 5.91461 74.0299 5.72749 74.2598 5.72749H80.6618C80.8938 5.72953 81.079 5.54241 81.079 5.31258Z" fill="#22244E"/>
<path d="M130.559 10.1756L137.926 2.16817C138.07 2.01156 137.958 1.75935 137.746 1.75935H131.507L123.98 10.0211C123.935 10.0699 123.799 10.2 123.577 10.2H123.306C122.979 10.2 122.769 10.0353 122.769 9.66716L122.739 2.16207C122.739 1.93834 122.556 1.75732 122.332 1.75732H116.968C116.744 1.75732 116.561 1.93834 116.561 2.1641L116.565 21.8746C116.565 22.0983 116.746 22.2814 116.972 22.2814L122.364 22.2773C122.588 22.2773 122.769 22.0963 122.769 21.8705V18.4597C122.769 18.1973 122.869 17.9431 123.05 17.7519L125.732 14.8922C125.807 14.7804 126.015 14.6766 126.149 14.6766H126.518C126.646 14.6766 126.837 14.7722 126.914 14.876L132.578 22.2814H138.156C138.357 22.2814 138.471 22.0516 138.351 21.8909L130.498 11.4997C130.199 11.101 130.223 10.5438 130.559 10.1756Z" fill="#22244E"/>
<path d="M64.4369 1.75732L59.4269 1.75935C59.2396 1.75935 59.0768 1.89156 59.0382 2.07461L56.1791 15.5573C56.1445 15.716 55.9186 15.716 55.886 15.5573L53.0086 1.93834C52.9374 1.82851 52.8132 1.75732 52.6769 1.75732L46.7572 1.75935C46.568 1.75935 46.4072 1.89156 46.3665 2.07461L43.5033 15.5532C43.4687 15.7119 43.2428 15.7119 43.2103 15.5532L40.3939 2.07461C40.3552 1.88953 40.1924 1.75732 40.0032 1.75732L34.7448 1.76139C34.5454 1.76139 34.3989 1.95257 34.4518 2.14579L39.8892 21.9885C39.936 22.1614 40.0948 22.2814 40.2738 22.2814L46.279 22.2794C46.456 22.2794 46.6127 22.1614 46.6616 21.9926L49.4474 12.4394C49.4902 12.2949 49.6936 12.2949 49.7364 12.4394L52.5589 21.9967C52.6098 22.1655 52.7644 22.2834 52.9414 22.2834H58.9425C59.1216 22.2834 59.2803 22.1634 59.3271 21.9885L64.73 2.14173C64.7808 1.94647 64.6364 1.75732 64.4369 1.75732Z" fill="#22244E"/>
</g>
<defs>
<clipPath id="clip0_1613_2532">
<rect width="138.581" height="24" fill="white"/>
</clipPath>
</defs>
</svg>
