<svg width="174" height="32" viewBox="0 0 174 32" fill="none" xmlns="http://www.w3.org/2000/svg">
<path d="M16 31.875C7.23248 31.875 0.125 24.7675 0.125 16C0.125 7.23248 7.23248 0.125 16 0.125C24.7675 0.125 31.875 7.23248 31.875 16C31.875 24.7675 24.7675 31.875 16 31.875Z" fill="url(#paint0_linear_279_54699)" stroke="black" stroke-width="0.25"/>
<path d="M29.6992 16C29.6992 23.5659 23.5659 29.6992 16 29.6992C8.43413 29.6992 2.30078 23.5659 2.30078 16C2.30078 8.43413 8.43413 2.30078 16 2.30078C23.5659 2.30078 29.6992 8.43413 29.6992 16Z" fill="#FFFEFE" stroke="black"/>
<path d="M10.2581 16.701L22.5755 4.69506C22.6 4.67121 22.6389 4.70027 22.623 4.73051L17.7276 14.0385C17.7238 14.0457 17.7172 14.0511 17.7093 14.0534L15.0009 14.8316C14.9657 14.8418 14.976 14.8943 15.0125 14.8903L22.6263 14.0591C22.6544 14.056 22.6708 14.0901 22.6507 14.1102L9.45542 27.2709C9.43048 27.2957 9.3905 27.2647 9.4084 27.2344L15.6909 16.5919C15.703 16.5715 15.6876 16.5458 15.6639 16.5467L10.2802 16.7524C10.2528 16.7535 10.2385 16.7202 10.2581 16.701Z" fill="#1E1E1E"/>
<path d="M45.65 7.5C50.325 7.5 53.25 9.925 53.25 13.85C53.25 17.75 50.325 20.175 45.65 20.175H42.125V25H38.075V7.5H45.65ZM45.425 16.875C47.9 16.875 49.15 15.75 49.15 13.85C49.15 11.925 47.9 10.8 45.425 10.8H42.125V16.875H45.425ZM64.8605 25.3C59.3355 25.3 55.2855 21.45 55.2855 16.25C55.2855 11.05 59.3355 7.2 64.8605 7.2C70.3605 7.2 74.4355 11.025 74.4355 16.25C74.4355 21.475 70.3605 25.3 64.8605 25.3ZM64.8605 21.85C67.9855 21.85 70.3355 19.575 70.3355 16.25C70.3355 12.925 67.9855 10.65 64.8605 10.65C61.7355 10.65 59.3855 12.925 59.3855 16.25C59.3855 19.575 61.7355 21.85 64.8605 21.85ZM99.4684 7.5H103.343L97.6184 25H93.2684L89.4184 13.15L85.4434 25H81.1184L75.3684 7.5H79.5684L83.5184 19.8L87.6434 7.5H91.3934L95.3934 19.9L99.4684 7.5ZM109.629 21.75H119.154V25H105.604V7.5H118.829V10.75H109.629V14.55H117.754V17.7H109.629V21.75ZM137.877 25H133.527L130.152 20.125H129.952H126.427V25H122.377V7.5H129.952C134.627 7.5 137.552 9.925 137.552 13.85C137.552 16.475 136.227 18.4 133.952 19.375L137.877 25ZM133.452 13.85C133.452 11.925 132.202 10.8 129.727 10.8H126.427V16.9H129.727C132.202 16.9 133.452 15.75 133.452 13.85ZM160.916 25L159.366 21.25H151.241L149.691 25H145.541L153.341 7.5H157.341L165.166 25H160.916ZM152.541 18.175H158.091L155.316 11.475L152.541 18.175ZM166.981 25V7.5H171.031V25H166.981Z" fill="#FCFCFD"/>
<defs>
<linearGradient id="paint0_linear_279_54699" x1="24.0927" y1="-0.797492" x2="13.4718" y2="32.4602" gradientUnits="userSpaceOnUse">
<stop stop-color="#405DE6"/>
<stop offset="0.166667" stop-color="#833AB4"/>
<stop offset="0.333333" stop-color="#C13584"/>
<stop offset="0.5" stop-color="#FD1D1D"/>
<stop offset="0.666667" stop-color="#F56040"/>
<stop offset="0.833333" stop-color="#F77737"/>
<stop offset="1" stop-color="#FCAF45"/>
</linearGradient>
</defs>
</svg>
