<?xml version="1.0" encoding="UTF-8" standalone="no"?>
<!DOCTYPE svg PUBLIC "-//W3C//DTD SVG 1.1//EN" "http://www.w3.org/Graphics/SVG/1.1/DTD/svg11.dtd">
<svg xmlns="http://www.w3.org/2000/svg" version="1.1" viewBox="0.00 0.00 180.00 180.00">
<path fill="#953fe3" d="
  M 33.18 171.35
  C 22.60 165.78 16.06 156.30 14.42 144.73
  Q 13.97 141.54 13.95 136.24
  Q 13.76 72.88 13.89 44.12
  C 13.91 38.14 14.89 31.30 17.52 25.94
  C 23.36 14.06 36.42 5.43 50.14 6.75
  Q 60.01 7.70 66.74 11.59
  C 85.02 22.17 104.22 31.41 122.60 41.60
  C 134.62 48.27 147.35 54.55 157.74 60.59
  C 177.15 71.87 181.36 99.26 165.16 115.26
  Q 161.74 118.64 153.32 123.40
  C 141.96 129.81 129.98 135.69 117.22 142.92
  C 111.37 146.24 103.42 149.94 96.17 154.06
  C 86.45 159.59 77.24 163.75 66.64 169.90
  C 56.79 175.62 43.44 176.76 33.18 171.35
  Z
  M 65.1512 35.7367
  A 7.44 7.44 0.0 0 0 57.7372 28.2707
  L 40.1574 28.2094
  A 7.44 7.44 0.0 0 0 32.6914 35.6233
  L 32.6888 36.3833
  A 7.44 7.44 0.0 0 0 40.1028 43.8493
  L 57.6826 43.9106
  A 7.44 7.44 0.0 0 0 65.1486 36.4967
  L 65.1512 35.7367
  Z
  M 110.62 66.62
  Q 112.72 60.24 107.84 57.00
  Q 105.98 55.76 102.78 55.76
  Q 71.53 55.70 40.27 55.77
  C 37.20 55.78 35.97 56.68 34.30 59.02
  C 30.56 64.25 32.59 68.53 38.00 70.92
  Q 39.43 71.56 41.13 71.56
  Q 71.21 71.72 101.26 71.48
  C 105.48 71.45 109.28 70.72 110.62 66.62
  Z
  M 74.6994 90.4033
  A 7.63 7.63 0.0 0 0 67.0561 82.7866
  L 40.2561 82.8334
  A 7.63 7.63 0.0 0 0 32.6395 90.4767
  L 32.6406 91.1167
  A 7.63 7.63 0.0 0 0 40.2839 98.7334
  L 67.0839 98.6866
  A 7.63 7.63 0.0 0 0 74.7005 91.0433
  L 74.6994 90.4033
  Z
  M 151.4896 90.4914
  A 7.77 7.77 0.0 0 0 143.7061 82.7350
  L 92.1461 82.8250
  A 7.77 7.77 0.0 0 0 84.3897 90.6086
  L 84.3904 91.0086
  A 7.77 7.77 0.0 0 0 92.1739 98.7650
  L 143.7339 98.6750
  A 7.77 7.77 0.0 0 0 151.4903 90.8914
  L 151.4896 90.4914
  Z
  M 41.15 110.12
  C 36.08 110.13 32.59 113.56 32.38 118.64
  Q 32.36 119.13 32.60 119.55
  C 34.59 123.10 35.88 125.98 40.50 125.98
  Q 72.65 126.01 104.81 126.03
  A 1.56 1.53 26.0 0 0 105.74 125.72
  C 107.91 124.13 110.50 123.33 110.97 120.25
  C 111.71 115.42 109.35 110.16 103.75 110.15
  Q 72.46 110.11 41.15 110.12
  Z
  M 65.2377 144.8148
  A 7.55 7.55 0.0 0 0 57.6483 137.3044
  L 40.1885 137.3958
  A 7.55 7.55 0.0 0 0 32.6781 144.9852
  L 32.6823 145.7852
  A 7.55 7.55 0.0 0 0 40.2717 153.2956
  L 57.7315 153.2042
  A 7.55 7.55 0.0 0 0 65.2419 145.6148
  L 65.2377 144.8148
  Z"
/>
</svg>
